<svg width="16" height="22" viewBox="0 0 16 22" fill="none" xmlns="http://www.w3.org/2000/svg">
<path d="M13 1H3C1.89543 1 1 1.89543 1 3V19C1 20.1046 1.89543 21 3 21H13C14.1046 21 15 20.1046 15 19V3C15 1.89543 14.1046 1 13 1Z" stroke="#6666FF" stroke-width="2" stroke-linecap="round" stroke-linejoin="round"/>
<path d="M7.28746 10.1942L9.23324 7.32646C9.48165 6.96017 9.41417 6.44029 9.08315 6.1657C8.75064 5.89075 8.28216 5.96606 8.03227 6.3316L5.14984 10.5795C4.76878 11.1053 5.16468 11.9491 5.77378 11.9058L8.71254 11.8044L6.76677 14.6721C6.38228 15.2013 6.78577 16.041 7.38998 15.9984C7.61038 15.9909 7.82487 15.8769 7.96774 15.667L10.8502 11.4191C11.2312 10.8934 10.8353 10.0493 10.2262 10.0928L7.28746 10.1942Z" fill="#6666FF"/>
</svg>
