<svg width="20" height="20" viewBox="0 0 20 20" fill="none" xmlns="http://www.w3.org/2000/svg">
<path fill-rule="evenodd" clip-rule="evenodd" d="M7.53496 2.55364L7.95872 0.601732C7.98555 0.478237 8.0492 0.365781 8.14125 0.279194C8.23331 0.192608 8.34945 0.135958 8.47436 0.116724C9.4855 -0.038908 10.5145 -0.038908 11.5256 0.116724C11.6505 0.135958 11.7667 0.192608 11.8587 0.279194C11.9508 0.365781 12.0144 0.478237 12.0413 0.601732L12.465 2.55364C12.8275 2.67364 13.1813 2.81989 13.5219 2.99177L15.2026 1.91113C15.3088 1.84296 15.4332 1.80856 15.5594 1.81247C15.6856 1.81637 15.8076 1.8584 15.9095 1.933C16.735 2.5373 17.4627 3.26498 18.067 4.09053C18.1416 4.19237 18.1836 4.31441 18.1875 4.44059C18.1914 4.56677 18.157 4.69117 18.0889 4.79742L17.0082 6.47808C17.1801 6.81871 17.3264 7.17246 17.4464 7.53496L19.3983 7.95872C19.5218 7.98555 19.6342 8.0492 19.7208 8.14125C19.8074 8.23331 19.864 8.34945 19.8833 8.47436C20.0389 9.4855 20.0389 10.5145 19.8833 11.5256C19.864 11.6505 19.8074 11.7667 19.7208 11.8587C19.6342 11.9508 19.5218 12.0144 19.3983 12.0413L17.4464 12.465C17.3264 12.8275 17.1801 13.1813 17.0082 13.5219L18.0889 15.2026C18.157 15.3088 18.1914 15.4332 18.1875 15.5594C18.1836 15.6856 18.1416 15.8076 18.067 15.9095C17.4627 16.735 16.735 17.4627 15.9095 18.067C15.8076 18.1416 15.6856 18.1836 15.5594 18.1875C15.4332 18.1914 15.3088 18.157 15.2026 18.0889L13.5219 17.0082C13.1813 17.1801 12.8275 17.3264 12.465 17.4464L12.0413 19.3983C12.0144 19.5218 11.9508 19.6342 11.8587 19.7208C11.7667 19.8074 11.6505 19.864 11.5256 19.8833C10.5145 20.0389 9.4855 20.0389 8.47436 19.8833C8.34945 19.864 8.23331 19.8074 8.14125 19.7208C8.0492 19.6342 7.98555 19.5218 7.95872 19.3983L7.53496 17.4464C7.17237 17.3265 6.81911 17.1801 6.47808 17.0082L4.79742 18.0889C4.69117 18.157 4.56677 18.1914 4.44059 18.1875C4.31441 18.1836 4.19237 18.1416 4.09053 18.067C3.26498 17.4627 2.5373 16.735 1.933 15.9095C1.8584 15.8076 1.81637 15.6856 1.81247 15.5594C1.80856 15.4332 1.84296 15.3088 1.91113 15.2026L2.99177 13.5219C2.81992 13.1809 2.67348 12.8276 2.55364 12.465L0.601732 12.0413C0.478237 12.0144 0.365781 11.9508 0.279194 11.8587C0.192608 11.7667 0.135958 11.6505 0.116724 11.5256C-0.038908 10.5145 -0.038908 9.4855 0.116724 8.47436C0.135958 8.34945 0.192608 8.23331 0.279194 8.14125C0.365781 8.0492 0.478237 7.98555 0.601732 7.95872L2.55364 7.53496C2.67364 7.17246 2.81989 6.81871 2.99177 6.47808L1.91113 4.79742C1.84296 4.69117 1.80856 4.56677 1.81247 4.44059C1.81637 4.31441 1.8584 4.19237 1.933 4.09053C2.5373 3.26498 3.26498 2.5373 4.09053 1.933C4.19237 1.8584 4.31441 1.81637 4.44059 1.81247C4.56677 1.80856 4.69117 1.84296 4.79742 1.91113L6.47808 2.99177C6.81911 2.81992 7.17237 2.67348 7.53496 2.55364Z" fill="#6666FF"/>
<path d="M10.0001 15.6251C13.1067 15.6251 15.6251 13.1067 15.6251 10.0001C15.6251 6.89343 13.1067 4.375 10.0001 4.375C6.89343 4.375 4.375 6.89343 4.375 10.0001C4.375 13.1067 6.89343 15.6251 10.0001 15.6251Z" fill="white"/>
<path fill-rule="evenodd" clip-rule="evenodd" d="M8.12502 11.8751V9.37378C8.12502 9.0294 8.4044 8.75002 8.74878 8.75002H8.75128C9.09566 8.75002 9.37504 9.0294 9.37504 9.37378V11.8751C9.37504 12.0408 9.44089 12.1998 9.5581 12.317C9.67531 12.4342 9.83428 12.5001 10 12.5001C10.1658 12.5001 10.3248 12.4342 10.442 12.317C10.5592 12.1998 10.6251 12.0408 10.6251 11.8751V9.37378C10.6251 8.87682 10.4276 8.40022 10.0762 8.04882C9.72484 7.69742 9.24823 7.5 8.75128 7.5H8.74878C8.25182 7.5 7.77522 7.69742 7.42382 8.04882C7.07242 8.40022 6.875 8.87682 6.875 9.37378V11.8751C6.875 12.0408 6.94085 12.1998 7.05806 12.317C7.17527 12.4342 7.33425 12.5001 7.50001 12.5001C7.66577 12.5001 7.82475 12.4342 7.94196 12.317C8.05917 12.1998 8.12502 12.0408 8.12502 11.8751Z" fill="#6666FF"/>
<path fill-rule="evenodd" clip-rule="evenodd" d="M7.50001 11.2501H10C10.1658 11.2501 10.3248 11.1842 10.442 11.067C10.5592 10.9498 10.6251 10.7908 10.6251 10.625C10.6251 10.4593 10.5592 10.3003 10.442 10.1831C10.3248 10.0659 10.1658 10 10 10H7.50001C7.33425 10 7.17527 10.0659 7.05806 10.1831C6.94085 10.3003 6.875 10.4593 6.875 10.625C6.875 10.7908 6.94085 10.9498 7.05806 11.067C7.17527 11.1842 7.33425 11.2501 7.50001 11.2501ZM11.8751 8.12501V11.8751C11.8751 12.0408 11.9409 12.1998 12.0581 12.317C12.1753 12.4342 12.3343 12.5001 12.5001 12.5001C12.6658 12.5001 12.8248 12.4342 12.942 12.317C13.0592 12.1998 13.1251 12.0408 13.1251 11.8751V8.12501C13.1251 7.95925 13.0592 7.80027 12.942 7.68306C12.8248 7.56585 12.6658 7.5 12.5001 7.5C12.3343 7.5 12.1753 7.56585 12.0581 7.68306C11.9409 7.80027 11.8751 7.95925 11.8751 8.12501Z" fill="#6666FF"/>
</svg>
